<?xml version="1.0" standalone="no"?>
<!DOCTYPE svg PUBLIC "-//W3C//DTD SVG 20010904//EN"
 "http://www.w3.org/TR/2001/REC-SVG-20010904/DTD/svg10.dtd">
<svg version="1.0" xmlns="http://www.w3.org/2000/svg"
 width="389.000000pt" height="129.000000pt" viewBox="0 0 389.000000 129.000000"
 preserveAspectRatio="xMidYMid meet">
<metadata>
Created by potrace 1.16, written by Peter Selinger 2001-2019
</metadata>
<g transform="translate(0.000000,129.000000) scale(0.100000,-0.100000)"
fill="#000000" stroke="none">
<path d="M3688 932 c9 -10 19 -17 21 -16 6 5 -20 34 -30 34 -5 0 -1 -8 9 -18z"/>
<path d="M3653 924 c20 -6 23 -21 4 -26 -11 -2 -11 -6 2 -20 15 -15 16 -14 16
15 0 24 -5 32 -20 34 -16 1 -16 1 -2 -3z"/>
<path d="M3600 873 c0 -6 8 -17 18 -24 16 -13 16 -13 2 6 -8 11 -16 22 -17 24
-2 2 -3 0 -3 -6z"/>
<path d="M3691 857 c-13 -21 -12 -21 5 -5 10 10 16 20 13 22 -3 3 -11 -5 -18
-17z"/>
<path d="M1379 828 c0 -2 -2 -13 -5 -25 l-4 -23 191 0 c104 0 188 -4 185 -8
-3 -5 -84 -64 -181 -132 -159 -111 -202 -150 -188 -172 2 -5 114 -8 249 -8
l244 0 0 30 0 30 -187 2 -188 3 187 130 c148 103 187 135 188 153 l0 22 -245
0 c-135 0 -245 -1 -246 -2z"/>
<path d="M1930 645 l0 -185 190 0 190 0 0 25 0 24 -157 3 -158 3 -3 58 -3 57
151 0 150 0 0 25 0 24 -147 3 -148 3 -3 48 -3 47 160 0 161 0 0 25 0 25 -190
0 -190 0 0 -185z"/>
<path d="M2370 645 l0 -185 30 0 30 0 0 145 c0 80 2 145 5 145 2 0 94 -65 202
-145 109 -79 204 -145 211 -145 9 0 12 44 12 185 l0 185 -25 0 -25 0 0 -136
c0 -111 -3 -135 -14 -131 -7 3 -93 64 -189 136 -135 100 -184 131 -207 131
l-30 0 0 -185z"/>
<path d="M2940 645 l0 -185 30 0 30 0 0 185 0 185 -30 0 -30 0 0 -185z"/>
<path d="M3124 816 c-17 -8 -34 -21 -38 -31 -3 -9 -6 -72 -6 -139 0 -139 8
-159 68 -176 20 -5 83 -10 139 -10 l102 0 23 -40 c20 -34 28 -40 56 -40 l34 0
-21 36 c-27 45 -26 54 2 54 13 0 33 9 45 20 20 19 22 30 22 150 0 70 -3 136
-6 145 -14 37 -57 45 -226 45 -114 -1 -172 -5 -194 -14z m354 -48 c8 -8 12
-50 12 -125 0 -101 -2 -113 -19 -123 -11 -5 -82 -10 -160 -10 -114 0 -142 3
-155 16 -20 20 -23 223 -4 242 17 17 309 17 326 0z"/>
<path d="M250 725 l-75 -75 248 -248 248 -247 142 145 c78 80 187 192 242 248
l99 102 -74 75 -74 75 -111 0 -110 0 78 -78 77 -77 -133 -133 c-73 -72 -137
-132 -142 -132 -5 0 -69 60 -142 132 l-133 133 77 77 78 78 -110 0 -111 0 -74
-75z"/>
</g>
</svg>
