<?xml version="1.0" standalone="no"?>
<!DOCTYPE svg PUBLIC "-//W3C//DTD SVG 20010904//EN"
 "http://www.w3.org/TR/2001/REC-SVG-20010904/DTD/svg10.dtd">
<svg version="1.0" xmlns="http://www.w3.org/2000/svg"
 width="600.000000pt" height="600.000000pt" viewBox="0 0 600.000000 600.000000"
 preserveAspectRatio="xMidYMid meet">
<metadata>
Created by potrace 1.16, written by Peter Selinger 2001-2019
</metadata>
<g transform="translate(0.000000,600.000000) scale(0.100000,-0.100000)"
fill="#000000" stroke="none">
<path d="M307 3543 c-4 -3 -7 -82 -7 -175 l0 -168 180 0 180 0 0 175 0 175
-173 0 c-96 0 -177 -3 -180 -7z"/>
<path d="M740 3375 l0 -175 328 2 327 3 3 43 c6 76 -25 150 -87 212 -82 82
-115 90 -367 90 l-204 0 0 -175z"/>
<path d="M1972 3310 c-37 -23 -62 -72 -62 -125 0 -31 -3 -35 -25 -35 -18 0
-26 -7 -31 -25 -7 -29 10 -55 37 -55 17 0 19 -13 21 -192 l3 -193 40 0 40 0 3
192 2 192 43 3 c41 3 42 4 45 41 l3 37 -45 0 c-45 0 -46 1 -46 30 0 33 38 80
65 80 11 0 15 10 15 35 0 34 -1 35 -37 35 -21 0 -53 -9 -71 -20z"/>
<path d="M2167 3312 c-30 -33 -21 -69 22 -92 20 -10 27 -9 50 7 14 11 27 30
29 42 8 51 -66 82 -101 43z"/>
<path d="M3273 3315 c-42 -18 -62 -51 -70 -114 -5 -45 -8 -51 -29 -51 -21 0
-24 -5 -24 -35 0 -29 4 -36 25 -41 l25 -6 0 -182 c0 -128 4 -186 12 -194 14
-14 64 -16 72 -4 3 5 6 87 7 183 1 95 4 179 6 186 3 8 22 13 44 13 39 0 39 0
39 40 l0 40 -41 0 -40 0 3 43 c3 36 7 44 35 57 27 12 33 21 33 48 0 30 -2 32
-32 32 -18 -1 -47 -7 -65 -15z"/>
<path d="M3667 3312 c-30 -33 -21 -69 22 -92 20 -10 27 -9 50 8 32 24 37 46
17 77 -20 30 -65 33 -89 7z"/>
<path d="M5567 3312 c-18 -19 -22 -49 -9 -68 8 -13 46 -34 61 -34 20 0 51 40
51 64 0 51 -69 76 -103 38z"/>
<path d="M3457 3304 c-13 -13 -8 -599 5 -612 16 -16 63 -15 77 2 8 9 11 100 9
312 l-3 299 -40 3 c-23 2 -44 0 -48 -4z"/>
<path d="M2167 3143 c-4 -3 -7 -101 -7 -218 0 -234 4 -249 55 -243 l30 3 5
220 c3 121 1 226 -4 233 -9 13 -68 17 -79 5z"/>
<path d="M2370 2921 l0 -231 24 -6 c59 -15 61 -12 66 151 3 93 10 159 18 172
15 28 62 53 97 53 23 0 25 3 25 45 0 40 -2 45 -22 45 -13 0 -41 -11 -63 -25
-50 -30 -53 -30 -57 -2 -2 18 -10 23 -45 25 l-43 3 0 -230z"/>
<path d="M2774 3131 c-50 -23 -101 -83 -115 -136 -18 -65 -6 -168 25 -215 43
-65 96 -94 182 -98 60 -3 81 0 120 18 41 20 104 88 104 112 0 4 -20 8 -44 8
-34 0 -49 -6 -74 -29 -33 -32 -86 -47 -129 -37 -38 10 -93 69 -93 100 l0 26
174 0 c143 0 175 3 179 15 4 8 2 40 -3 72 -6 32 -10 59 -10 61 0 13 -91 96
-118 108 -49 20 -148 18 -198 -5z m184 -77 c20 -13 52 -68 52 -89 0 -3 -58 -5
-130 -5 -145 0 -150 3 -109 62 41 57 127 71 187 32z"/>
<path d="M3667 3143 c-4 -3 -7 -101 -7 -218 0 -234 4 -249 55 -243 l30 3 5
223 c3 135 1 227 -4 233 -11 10 -69 12 -79 2z"/>
<path d="M3965 3129 c-84 -42 -125 -111 -125 -213 0 -70 14 -114 50 -157 86
-106 284 -106 356 0 34 50 31 61 -15 61 -29 0 -46 -7 -69 -29 -33 -32 -86 -47
-129 -37 -38 10 -93 69 -93 100 0 30 -15 28 195 30 l150 1 3 40 c2 22 -2 57
-8 78 -14 48 -73 114 -118 133 -50 21 -149 17 -197 -7z m183 -75 c28 -18 60
-81 46 -92 -5 -4 -64 -6 -131 -4 -110 3 -123 6 -123 21 0 26 38 71 74 87 36
16 100 11 134 -12z"/>
<path d="M4445 3136 c-56 -26 -79 -60 -78 -118 1 -46 5 -56 32 -79 18 -15 70
-39 116 -53 92 -30 115 -45 115 -80 0 -33 -23 -48 -79 -54 -46 -4 -52 -2 -85
32 -30 29 -44 36 -76 36 -22 0 -40 -2 -40 -5 0 -15 31 -63 57 -87 38 -36 73
-48 145 -48 101 0 168 53 168 134 0 56 -44 98 -132 126 -109 34 -128 46 -128
79 0 39 24 56 78 56 38 0 48 -5 72 -33 24 -29 33 -33 66 -30 33 2 38 6 36 23
-4 26 -32 64 -66 89 -34 26 -155 33 -201 12z"/>
<path d="M5091 3128 c-160 -78 -156 -352 6 -428 65 -31 154 -25 211 12 l40 27
11 -30 c9 -27 14 -30 48 -27 l38 3 3 224 c3 242 3 241 -51 241 -26 0 -29 -4
-43 -48 -4 -14 -4 -14 -69 28 -43 26 -136 26 -194 -2z m199 -76 c64 -48 85
-152 44 -222 -25 -45 -97 -83 -142 -76 -73 11 -122 76 -122 163 0 66 26 113
81 141 50 26 98 24 139 -6z"/>
<path d="M5570 3138 c-1 -7 -1 -109 -1 -227 0 -227 1 -231 47 -231 42 0 45 16
42 246 l-3 219 -42 3 c-30 2 -43 -1 -43 -10z"/>
<path d="M300 2940 c0 -98 5 -203 11 -232 30 -145 153 -248 295 -248 l54 0 0
330 0 330 -180 0 -180 0 0 -180z"/>
<path d="M740 2946 c0 -96 3 -177 8 -179 4 -3 82 -2 175 1 l167 5 0 173 0 174
-175 0 -175 0 0 -174z"/>
<path d="M4803 2764 c-15 -24 -15 -29 -2 -53 28 -49 109 -32 109 24 0 54 -77
75 -107 29z"/>
</g>
</svg>
