<svg width="109" height="32" viewBox="0 0 109 32" fill="none" xmlns="http://www.w3.org/2000/svg">
<g clip-path="url(#clip0_7170_20375)">
<path fill-rule="evenodd" clip-rule="evenodd" d="M52.8984 21.8037V17.664C52.8984 15.3274 54.7939 13.7452 57.5534 13.7452C60.3134 13.7452 61.7849 15.2539 61.7849 18.1056V21.8037H63.5329V17.8664C63.5329 14.1867 61.6379 12.2549 58.0504 12.2549C55.7134 12.2549 53.8739 13.1932 52.8984 14.8491V8.46484H51.1509V21.8037H52.8984ZM17.9162 22.1532C20.9887 22.1532 22.847 21.4173 23.9325 19.8902C23.9325 20.571 23.9693 21.2149 24.0613 21.8036H25.8827C25.7171 20.8469 25.6803 20.2214 25.6803 18.4919V16.1369C25.6803 13.5979 23.7117 12.2549 19.9584 12.2549C16.3339 12.2549 13.9789 13.6531 13.6845 15.677H15.6164C15.9107 14.3155 17.4378 13.5979 19.9584 13.5979C22.4422 13.5979 23.9141 14.4627 23.9141 15.9345V16.1185L18.1738 16.4497C15.8372 16.5785 14.9724 16.9097 14.3101 17.388C13.6845 17.848 13.335 18.5655 13.335 19.3935C13.335 21.1413 15.138 22.1532 17.9162 22.1532ZM18.5049 20.8469C16.3707 20.8469 15.1932 20.3502 15.1932 19.3567C15.1932 18.2895 15.9291 17.8112 18.5233 17.6456L23.9141 17.3144V17.7376C23.9141 19.6694 21.6511 20.8469 18.5049 20.8469ZM30.4179 12.6041H28.7988V21.8033H30.5467V18.3628C30.5467 17.0382 30.8042 15.9158 31.5402 15.1431C32.1841 14.4256 33.0121 14.0208 34.4655 14.0208C34.9623 14.0208 35.2751 14.0576 35.6982 14.1312V12.4385C35.3119 12.3465 34.9807 12.3281 34.4839 12.3281C32.5153 12.3281 30.9514 13.4873 30.4179 15.2719V12.6041ZM48.8424 18.8047C48.18 20.9205 45.8434 22.1532 42.5501 22.1532C38.6496 22.1532 36.0923 20.203 36.0923 17.204C36.0923 14.1867 38.668 12.2549 42.6605 12.2549C46.1194 12.2549 48.1616 13.3772 48.8792 15.7322L46.9289 15.9897C46.3954 14.4443 44.9787 13.7083 42.5869 13.7083C39.6248 13.7083 37.9505 14.9594 37.9505 17.204C37.9505 19.3751 39.7167 20.6997 42.6053 20.6997C44.8683 20.6997 46.3218 19.9638 47.0025 18.5287L48.8424 18.8047ZM68.5252 8.7959V10.9301H66.4277V8.7959H68.5252ZM68.3597 12.6044V21.8036H66.6117V12.6044H68.3597ZM77.5895 21.8037L83.2565 12.6045H81.251L76.872 19.8167C76.7448 20.0171 76.6715 20.1994 76.5982 20.3815L76.596 20.387H76.578L76.5758 20.3816C76.5025 20.1994 76.4292 20.0171 76.302 19.8167L71.923 12.6045H69.9175L75.584 21.8037H77.5895ZM89.8594 12.2549C93.8704 12.2549 96.3724 14.0579 96.3724 17.0385V17.7008H85.2229C85.3519 19.5774 87.0444 20.7181 90.0064 20.7181C92.2514 20.7181 93.8149 20.0742 94.7164 18.8047L96.2069 19.5222C94.9744 21.2701 92.9689 22.1532 89.9884 22.1532C85.9589 22.1532 83.4014 20.3318 83.4014 17.3144C83.4014 13.9659 86.0694 12.2549 89.8594 12.2549ZM89.8594 13.5243C87.2099 13.5243 85.3884 14.6467 85.2229 16.4129H94.5324V16.3945C94.5144 14.5547 92.3984 13.5243 89.8594 13.5243Z" fill="black"/>
<path d="M16.929 1H92.821C101.135 1 107.875 7.71575 107.875 16C107.875 24.2843 101.135 31 92.821 31H16.929C8.61494 31 1.875 24.2843 1.875 16C1.875 7.71575 8.61494 1 16.929 1Z" stroke="black" stroke-width="1.8"/>
</g>
<defs>
<clipPath id="clip0_7170_20375">
<rect width="108" height="32" fill="white" transform="translate(0.875)"/>
</clipPath>
</defs>
</svg>
